name analog
datacolumns 19
datarows 51
range 0.0 0.025
endheader
time	ground_force_vx	ground_force_vy	ground_force_vz	ground_force_px	ground_force_py	ground_force_pz	l_ground_force_vx	l_ground_force_vy	l_ground_force_vz	l_ground_force_px	l_ground_force_py	l_ground_force_pz	ground_torque_x	ground_torque_y	ground_torque_z	l_ground_torque_x	l_ground_torque_y	l_ground_torque_z
0.0	-0.0	-0.0	-0.0	-11.30398178100586	13.19131088256836	-118.57699584960938	4.963535308837891	-5.440351486206055	-639.29638671875	-0.0	-0.0	-0.0	-0.0	-0.0	-0.0	239231.28125	1566.9625244140625	2776.44775390625
0.0005	-0.0	-0.0	-0.0	-11.471710205078123	13.329346656799316	-118.4983139038086	4.997607231140137	-5.442588806152344	-639.428466796875	-0.0	-0.0	-0.0	-0.0	-0.0	-0.0	239171.015625	1574.593505859375	2805.06396484375
0.001	-0.0	-0.0	-0.0	-10.642416000366213	13.445520401000977	-119.40960693359376	4.816718101501465	-6.248989582061768	-638.3873291015625	-0.0	-0.0	-0.0	-0.0	-0.0	-0.0	239134.5625	1580.426025390625	2877.782470703125
0.0015	-0.0	-0.0	-0.0	-10.920469284057615	12.857060432434082	-120.0767822265625	5.188451766967773	-6.031327724456787	-639.514892578125	-0.0	-0.0	-0.0	-0.0	-0.0	-0.0	238964.296875	1492.0250244140625	2865.87060546875
0.002	-0.0	-0.0	-0.0	-11.18677806854248	13.024494171142578	-119.709716796875	5.224807262420654	-6.10094165802002	-639.6279907226562	-0.0	-0.0	-0.0	-0.0	-0.0	-0.0	239186.953125	1327.0252685546875	2987.199462890625
0.0025	-0.0	-0.0	-0.0	-10.797914505004885	13.305002212524414	-118.55343627929688	5.740588188171387	-6.474535942077637	-640.3576049804688	-0.0	-0.0	-0.0	-0.0	-0.0	-0.0	239241.203125	1062.282958984375	3188.640625
0.003	-0.0	-0.0	-0.0	-10.789819717407228	13.378856658935549	-120.0259246826172	5.682136058807373	-6.45673418045044	-640.96923828125	-0.0	-0.0	-0.0	-0.0	-0.0	-0.0	239117.515625	896.3965454101562	3241.995849609375
0.0035	-0.0	-0.0	-0.0	-10.976511001586914	13.307353973388672	-119.09587097167967	5.78481388092041	-6.588040351867676	-640.7481689453125	-0.0	-0.0	-0.0	-0.0	-0.0	-0.0	239136.6875	1040.58056640625	3311.554443359375
0.004	-0.0	-0.0	-0.0	-10.733888626098633	13.315472602844238	-118.00006103515624	6.279397487640381	-6.591852188110352	-640.5374755859375	-0.0	-0.0	-0.0	-0.0	-0.0	-0.0	239291.03125	828.30224609375	3561.674072265625
0.0045000000000000005	-0.0	-0.0	-0.0	-11.025163650512695	12.940873146057127	-117.50390625	6.284836769104004	-6.957662105560303	-640.313720703125	-0.0	-0.0	-0.0	-0.0	-0.0	-0.0	239434.625	763.754150390625	3528.14990234375
0.005	-0.0	-0.0	-0.0	-10.799342155456545	13.008172988891602	-120.0040512084961	6.475887298583984	-7.075417518615723	-642.1472778320312	-0.0	-0.0	-0.0	-0.0	-0.0	-0.0	239349.8125	753.8836669921875	3651.4853515625
0.0055	-0.0	-0.0	-0.0	-10.675459861755373	13.066242218017578	-118.42845916748048	6.828245162963867	-7.014175891876221	-641.2459106445312	-0.0	-0.0	-0.0	-0.0	-0.0	-0.0	239379.46875	606.7056274414062	3552.877685546875
0.006	-0.0	-0.0	-0.0	-10.925765991210938	12.849859237670898	-118.83480834960938	6.830794334411621	-7.354908943176269	-642.399658203125	-0.0	-0.0	-0.0	-0.0	-0.0	-0.0	239358.0625	624.8201904296875	3640.169189453125
0.006500000000000001	-0.0	-0.0	-0.0	-10.425951957702637	13.007949829101562	-119.10806274414062	6.829455375671387	-7.55656623840332	-641.7506103515625	-0.0	-0.0	-0.0	-0.0	-0.0	-0.0	239715.3125	657.0003051757812	3770.499267578125
0.007	-0.0	-0.0	-0.0	-10.720648765563965	12.824528694152832	-118.98102569580078	6.506608009338379	-7.595664978027344	-643.2582397460938	-0.0	-0.0	-0.0	-0.0	-0.0	-0.0	239991.640625	368.8040466308594	3625.13525390625
0.0075	-0.0	-0.0	-0.0	-11.017545700073242	13.237459182739258	-117.10487365722656	6.682221412658691	-8.073770523071289	-644.1914672851562	-0.0	-0.0	-0.0	-0.0	-0.0	-0.0	240420.765625	733.3296508789062	3650.5205078125
0.008	-0.0	-0.0	-0.0	-11.195883750915527	13.054987907409668	-117.09988403320312	6.541210174560547	-7.876277923583984	-643.6611328125	-0.0	-0.0	-0.0	-0.0	-0.0	-0.0	240593.75	650.151123046875	3692.30908203125
0.0085	-0.0	-0.0	-0.0	-11.094776153564451	12.554739952087402	-116.62842559814452	6.615516662597656	-7.85437536239624	-643.2871704101562	-0.0	-0.0	-0.0	-0.0	-0.0	-0.0	240820.34375	648.1006469726562	3612.69287109375
0.009000000000000001	-0.0	-0.0	-0.0	-11.408209800720217	12.939997673034668	-116.59188079833984	6.653308868408203	-8.015936851501465	-644.332275390625	-0.0	-0.0	-0.0	-0.0	-0.0	-0.0	241067.921875	753.7095336914062	3649.581298828125
0.0095	-0.0	-0.0	-0.0	-11.2337064743042	12.998085021972656	-116.95319366455078	6.875085830688477	-8.119741439819336	-644.8189697265625	-0.0	-0.0	-0.0	-0.0	-0.0	-0.0	241036.921875	674.8239135742188	3556.747802734375
0.01	-0.0	-0.0	-0.0	-11.260456085205078	13.052249908447266	-117.5981216430664	6.8723320960998535	-7.766340255737305	-643.62890625	-0.0	-0.0	-0.0	-0.0	-0.0	-0.0	240865.671875	887.171630859375	3535.6767578125
0.0105	-0.0	-0.0	-0.0	-11.378656387329102	13.10215187072754	-116.95191955566406	6.744790077209473	-7.94340181350708	-645.2542724609375	-0.0	-0.0	-0.0	-0.0	-0.0	-0.0	240682.671875	929.5156860351562	3498.9541015625
0.011	-0.0	-0.0	-0.0	-11.569339752197266	12.81797695159912	-116.54937744140624	6.758800983428955	-8.462174415588379	-644.11865234375	-0.0	-0.0	-0.0	-0.0	-0.0	-0.0	240712.796875	1206.0614013671875	3362.17578125
0.0115	-0.0	-0.0	-0.0	-11.329961776733398	12.554912567138672	-116.57608032226562	6.776529788970947	-8.20335578918457	-642.5208740234375	-0.0	-0.0	-0.0	-0.0	-0.0	-0.0	240407.40625	986.18603515625	3413.150634765625
0.012	-0.0	-0.0	-0.0	-11.767160415649414	12.912489891052246	-116.12850189208984	6.5259881019592285	-8.139777183532715	-641.892578125	-0.0	-0.0	-0.0	-0.0	-0.0	-0.0	240361.515625	1270.7415771484375	3326.874755859375
0.0125	-0.0	-0.0	-0.0	-11.949023246765137	12.840604782104492	-114.7583999633789	6.462343215942383	-8.022363662719727	-640.47900390625	-0.0	-0.0	-0.0	-0.0	-0.0	-0.0	240011.703125	1532.7166748046875	3215.6044921875
0.013000000000000001	-0.0	-0.0	-0.0	-11.983530044555664	12.918048858642578	-115.8198013305664	6.641606330871582	-7.7131147384643555	-638.9705200195312	-0.0	-0.0	-0.0	-0.0	-0.0	-0.0	240285.96875	1565.1405029296875	3259.93896484375
0.0135	-0.0	-0.0	-0.0	-12.180198669433594	13.088841438293455	-115.45435333251952	6.277766704559326	-7.929811954498291	-638.4877319335938	-0.0	-0.0	-0.0	-0.0	-0.0	-0.0	239694.203125	1478.8487548828125	3086.52294921875
0.014	-0.0	-0.0	-0.0	-12.06442642211914	13.057699203491213	-116.6785125732422	6.478940486907959	-7.975380897521973	-638.1908569335938	-0.0	-0.0	-0.0	-0.0	-0.0	-0.0	239557.90625	1765.22216796875	3232.95263671875
0.0145	-0.0	-0.0	-0.0	-12.06442928314209	13.102410316467283	-116.96712493896484	6.675468921661377	-7.712055206298828	-636.4798583984375	-0.0	-0.0	-0.0	-0.0	-0.0	-0.0	239489.15625	2065.470947265625	3146.682861328125
0.015	-0.0	-0.0	-0.0	-12.483390808105469	13.256129264831545	-115.9393081665039	6.647242546081543	-7.784387588500977	-634.7815551757812	-0.0	-0.0	-0.0	-0.0	-0.0	-0.0	239344.875	1995.0386962890625	3172.745361328125
0.0155	-0.0	-0.0	-0.0	-12.4417724609375	13.374984741210938	-117.74951934814452	6.485833168029785	-7.515709400177002	-636.8375244140625	-0.0	-0.0	-0.0	-0.0	-0.0	-0.0	239497.203125	2215.44287109375	3108.7412109375
0.016	-0.0	-0.0	-0.0	-12.592254638671877	13.796618461608888	-117.39070892333984	6.526404857635498	-7.418999195098877	-635.5169677734375	-0.0	-0.0	-0.0	-0.0	-0.0	-0.0	239643.9375	2180.212646484375	3048.48974609375
0.0165	-0.0	-0.0	-0.0	-12.52165412902832	13.898137092590332	-117.51409149169922	6.575837135314941	-7.548419952392578	-636.0726928710938	-0.0	-0.0	-0.0	-0.0	-0.0	-0.0	239521.59375	2496.026123046875	3118.51953125
0.017	-0.0	-0.0	-0.0	-13.076152801513672	13.980886459350586	-117.60891723632812	6.653308868408203	-7.406510353088379	-635.5301513671875	-0.0	-0.0	-0.0	-0.0	-0.0	-0.0	240098.34375	2274.491455078125	3060.347900390625
0.0175	-0.0	-0.0	-0.0	-12.679071426391602	13.98709487915039	-118.15745544433594	6.707067489624023	-7.69340705871582	-634.7078247070312	-0.0	-0.0	-0.0	-0.0	-0.0	-0.0	240040.484375	2343.748779296875	3100.05859375
0.018000000000000002	-0.0	-0.0	-0.0	-13.069211959838867	14.216266632080078	-119.8153076171875	6.605854034423828	-7.762732982635498	-634.7576293945312	-0.0	-0.0	-0.0	-0.0	-0.0	-0.0	240159.796875	2639.14697265625	3082.380126953125
0.0185	-0.0	-0.0	-0.0	-12.700387954711914	14.388076782226562	-119.8099594116211	6.4433441162109375	-7.893510818481445	-634.8067626953125	-0.0	-0.0	-0.0	-0.0	-0.0	-0.0	240236.75	2781.3828125	3021.8232421875
0.019	-0.0	-0.0	-0.0	-13.418319702148438	14.2608642578125	-119.70203399658205	6.3806352615356445	-7.507343292236328	-632.9974365234375	-0.0	-0.0	-0.0	-0.0	-0.0	-0.0	240558.984375	2508.617431640625	3053.65234375
0.0195	-0.0	-0.0	-0.0	-13.280007362365724	14.499360084533691	-119.95367431640624	6.667271614074707	-7.93741512298584	-633.503662109375	-0.0	-0.0	-0.0	-0.0	-0.0	-0.0	240396.609375	2567.135986328125	3001.842041015625
0.02	-0.0	-0.0	-0.0	-13.145130157470703	14.638508796691896	-120.62422943115234	6.789699554443359	-7.775726318359375	-632.8240966796875	-0.0	-0.0	-0.0	-0.0	-0.0	-0.0	240080.078125	2621.68798828125	3129.0458984375
0.0205	-0.0	-0.0	-0.0	-13.26335334777832	15.060035705566406	-121.5206527709961	6.850998401641846	-7.868958473205566	-630.6069946289062	-0.0	-0.0	-0.0	-0.0	-0.0	-0.0	240067.453125	2430.544677734375	3093.112060546875
0.021	-0.0	-0.0	-0.0	-13.751968383789062	15.118324279785156	-121.52072143554688	6.755533218383789	-8.207189559936523	-629.5469970703125	-0.0	-0.0	-0.0	-0.0	-0.0	-0.0	239898.734375	2238.1748046875	3185.809814453125
0.021500000000000002	-0.0	-0.0	-0.0	-13.185949325561523	15.109419822692873	-122.4854507446289	6.977426528930664	-7.592215538024902	-629.4664916992188	-0.0	-0.0	-0.0	-0.0	-0.0	-0.0	239869.921875	2415.07373046875	3296.89013671875
0.022	-0.0	-0.0	-0.0	-13.63541030883789	15.018377304077148	-122.55343627929688	7.403918266296387	-8.053972244262695	-628.7000122070312	-0.0	-0.0	-0.0	-0.0	-0.0	-0.0	239747.625	2177.8544921875	3260.687744140625
0.0225	-0.0	-0.0	-0.0	-13.478113174438477	15.061663627624512	-124.49592590332033	8.040077209472656	-8.301851272583008	-625.5599365234375	-0.0	-0.0	-0.0	-0.0	-0.0	-0.0	239562.4375	2146.17431640625	3402.45263671875
0.023	-0.0	-0.0	-0.0	-13.862800598144531	15.501662254333496	-125.42572784423828	8.29672622680664	-8.111627578735352	-625.5968627929688	-0.0	-0.0	-0.0	-0.0	-0.0	-0.0	239326.515625	2085.780517578125	3447.21435546875
0.0235	-0.0	-0.0	-0.0	-14.046110153198242	15.677072525024414	-124.2000732421875	8.450671195983887	-8.12210750579834	-622.62744140625	-0.0	-0.0	-0.0	-0.0	-0.0	-0.0	239210.375	2097.277587890625	3605.429443359375
0.024	-0.0	-0.0	-0.0	-14.205814361572266	15.834877014160156	-125.41431427001952	8.672351837158203	-8.213895797729492	-622.2021484375	-0.0	-0.0	-0.0	-0.0	-0.0	-0.0	239304.4375	1837.1571044921875	3752.984130859375
0.0245	-0.0	-0.0	-0.0	-13.881287574768066	16.005550384521484	-126.99935913085938	8.915433883666992	-8.090970039367676	-621.0960693359375	-0.0	-0.0	-0.0	-0.0	-0.0	-0.0	239536.6875	1677.3504638671875	3868.656005859375
0.025	-0.0	-0.0	-0.0	-14.62327003479004	16.399993896484375	-127.46923828125	9.2857027053833	-7.948951721191406	-620.5562744140625	-0.0	-0.0	-0.0	-0.0	-0.0	-0.0	239946.578125	1513.94873046875	4204.78662109375
